<svg xmlns="http://www.w3.org/2000/svg" xmlns:xlink="http://www.w3.org/1999/xlink"><polygon points="0, 200 0, 100 1, 101 2, 102 3, 103 4, 102 5, 103 6, 104 7, 103 8, 102 9, 103 10, 104 11, 103 12, 102 13, 101 14, 100 15, 101 16, 102 17, 103 18, 102 19, 103 20, 102 21, 103 22, 102 23, 101 24, 100 25, 99 26, 100 27, 99 28, 98 29, 99 30, 98 31, 99 32, 98 33, 97 34, 96 35, 97 36, 98 37, 99 38, 98 39, 97 40, 98 41, 97 42, 98 43, 99 44, 100 45, 101 46, 102 47, 103 48, 102 49, 103 50, 102 51, 101 52, 102 53, 101 54, 100 55, 99 56, 98 57, 97 58, 98 59, 99 60, 98 61, 97 62, 96 63, 95 64, 94 65, 95 66, 96 67, 95 68, 94 69, 95 70, 94 71, 93 72, 92 73, 91 74, 90 75, 91 76, 90 77, 89 78, 88 79, 89 80, 90 81, 91 82, 92 83, 91 84, 92 85, 91 86, 92 87, 91 88, 92 89, 93 90, 92 91, 91 92, 92 93, 91 94, 92 95, 91 96, 90 97, 91 98, 90 99, 89 100, 88 101, 87 102, 88 103, 89 104, 90 105, 91 106, 92 107, 91 108, 92 109, 91 110, 90 111, 91 112, 92 113, 91 114, 90 115, 89 116, 90 117, 89 118, 88 119, 89 120, 90 121, 91 122, 90 123, 91 124, 90 125, 91 126, 92 127, 91 128, 92 129, 91 130, 92 131, 91 132, 90 133, 89 134, 90 135, 89 136, 90 137, 91 138, 90 139, 91 140, 90 141, 91 142, 92 143, 91 144, 92 145, 91 146, 90 147, 89 148, 88 149, 89 150, 90 151, 89 152, 90 153, 89 154, 90 155, 89 156, 88 157, 89 158, 90 159, 91 160, 90 161, 91 162, 90 163, 91 164, 90 165, 89 166, 90 167, 89 168, 88 169, 89 170, 88 171, 87 172, 88 173, 87 174, 88 175, 87 176, 88 177, 87 178, 86 179, 87 180, 86 181, 87 182, 86 183, 87 184, 86 185, 87 186, 86 187, 85 188, 84 189, 85 190, 86 191, 85 192, 86 193, 87 194, 86 195, 85 196, 84 197, 85 198, 86 199, 85 200, 86 201, 87 202, 86 203, 85 204, 86 205, 87 206, 88 207, 87 208, 86 209, 87 210, 88 211, 89 212, 88 213, 89 214, 90 215, 91 216, 90 217, 89 218, 90 219, 89 220, 90 221, 89 222, 90 223, 91 224, 92 225, 91 226, 92 227, 93 228, 92 229, 93 230, 94 231, 93 232, 94 233, 95 234, 94 235, 95 236, 96 237, 97 238, 98 239, 99 240, 98 241, 99 242, 98 243, 99 244, 100 245, 101 246, 100 247, 99 248, 100 249, 101 250, 100 251, 99 252, 98 253, 99 254, 100 255, 101 256, 100 257, 101 258, 102 259, 101 260, 102 261, 103 262, 104 263, 103 264, 104 265, 105 266, 104 267, 105 268, 104 269, 103 270, 104 271, 103 272, 102 273, 103 274, 102 275, 103 276, 104 277, 103 278, 102 279, 103 280, 102 281, 101 282, 102 283, 103 284, 102 285, 101 286, 102 287, 101 288, 102 289, 103 290, 102 291, 101 292, 102 293, 101 294, 100 295, 99 296, 100 297, 101 298, 100 299, 101 300, 102 301, 101 302, 100 303, 101 304, 100 305, 99 306, 98 307, 99 308, 98 309, 99 310, 98 311, 99 312, 100 313, 101 314, 100 315, 101 316, 102 317, 101 318, 102 319, 101 320, 100 321, 99 322, 98 323, 97 324, 98 325, 97 326, 96 327, 95 328, 94 329, 95 330, 94 331, 95 332, 94 333, 95 334, 94 335, 93 336, 94 337, 95 338, 96 339, 97 340, 98 341, 97 342, 96 343, 95 344, 96 345, 97 346, 98 347, 97 348, 96 349, 95 350, 96 351, 97 352, 98 353, 97 354, 98 355, 99 356, 98 357, 99 358, 98 359, 99 360, 100 361, 99 362, 100 363, 99 364, 100 365, 101 366, 100 367, 99 368, 98 369, 97 370, 98 371, 99 372, 98 373, 97 374, 98 375, 99 376, 100 377, 99 378, 100 379, 101 380, 100 381, 101 382, 100 383, 99 384, 98 385, 99 386, 100 387, 101 388, 102 389, 103 390, 102 391, 101 392, 102 393, 103 394, 104 395, 103 396, 102 397, 101 398, 102 399, 103 400, 200 " style="fill:rgb(246, 90, 100); stroke:rgb(146, 0, 0)"></polygon><polygon points="0, 200 0, 100 1, 99 2, 100 3, 101 4, 102 5, 103 6, 104 7, 103 8, 104 9, 103 10, 102 11, 101 12, 100 13, 99 14, 100 15, 101 16, 102 17, 101 18, 102 19, 103 20, 104 21, 105 22, 104 23, 105 24, 106 25, 105 26, 104 27, 103 28, 104 29, 105 30, 104 31, 103 32, 102 33, 101 34, 100 35, 101 36, 100 37, 99 38, 98 39, 97 40, 96 41, 95 42, 94 43, 95 44, 94 45, 95 46, 96 47, 95 48, 94 49, 95 50, 94 51, 93 52, 94 53, 93 54, 92 55, 93 56, 94 57, 95 58, 94 59, 93 60, 94 61, 95 62, 94 63, 93 64, 92 65, 91 66, 90 67, 91 68, 92 69, 93 70, 94 71, 93 72, 92 73, 93 74, 94 75, 93 76, 92 77, 91 78, 90 79, 89 80, 90 81, 89 82, 88 83, 87 84, 88 85, 87 86, 88 87, 89 88, 90 89, 91 90, 90 91, 91 92, 90 93, 89 94, 90 95, 89 96, 88 97, 89 98, 90 99, 89 100, 90 101, 89 102, 90 103, 91 104, 90 105, 89 106, 90 107, 91 108, 90 109, 89 110, 90 111, 89 112, 88 113, 87 114, 86 115, 85 116, 86 117, 85 118, 84 119, 85 120, 86 121, 85 122, 86 123, 87 124, 86 125, 87 126, 88 127, 87 128, 86 129, 87 130, 86 131, 85 132, 86 133, 87 134, 88 135, 89 136, 90 137, 91 138, 92 139, 93 140, 92 141, 91 142, 92 143, 91 144, 90 145, 89 146, 88 147, 87 148, 86 149, 87 150, 88 151, 89 152, 88 153, 89 154, 90 155, 91 156, 92 157, 93 158, 94 159, 95 160, 96 161, 95 162, 94 163, 93 164, 92 165, 91 166, 90 167, 89 168, 90 169, 89 170, 90 171, 89 172, 88 173, 87 174, 86 175, 87 176, 88 177, 89 178, 88 179, 87 180, 86 181, 87 182, 88 183, 89 184, 90 185, 91 186, 90 187, 89 188, 90 189, 89 190, 88 191, 89 192, 88 193, 89 194, 88 195, 89 196, 88 197, 89 198, 90 199, 91 200, 90 201, 89 202, 90 203, 89 204, 88 205, 89 206, 88 207, 87 208, 86 209, 87 210, 86 211, 85 212, 86 213, 85 214, 86 215, 87 216, 86 217, 85 218, 86 219, 85 220, 84 221, 85 222, 84 223, 83 224, 84 225, 85 226, 86 227, 85 228, 86 229, 87 230, 86 231, 85 232, 86 233, 87 234, 86 235, 85 236, 84 237, 85 238, 86 239, 85 240, 84 241, 85 242, 84 243, 85 244, 84 245, 85 246, 84 247, 85 248, 86 249, 85 250, 86 251, 85 252, 86 253, 85 254, 84 255, 83 256, 84 257, 83 258, 84 259, 83 260, 82 261, 83 262, 82 263, 81 264, 82 265, 83 266, 84 267, 83 268, 82 269, 81 270, 80 271, 81 272, 80 273, 79 274, 78 275, 79 276, 80 277, 81 278, 82 279, 81 280, 82 281, 81 282, 82 283, 83 284, 84 285, 85 286, 84 287, 85 288, 86 289, 87 290, 88 291, 87 292, 88 293, 89 294, 90 295, 91 296, 90 297, 89 298, 90 299, 91 300, 92 301, 93 302, 92 303, 93 304, 92 305, 93 306, 92 307, 91 308, 90 309, 89 310, 90 311, 89 312, 90 313, 91 314, 92 315, 93 316, 92 317, 93 318, 92 319, 91 320, 92 321, 93 322, 94 323, 93 324, 92 325, 91 326, 92 327, 91 328, 90 329, 91 330, 92 331, 91 332, 92 333, 91 334, 92 335, 91 336, 92 337, 93 338, 94 339, 95 340, 96 341, 95 342, 94 343, 93 344, 94 345, 93 346, 92 347, 91 348, 92 349, 93 350, 92 351, 93 352, 94 353, 95 354, 96 355, 95 356, 96 357, 95 358, 96 359, 97 360, 96 361, 95 362, 94 363, 93 364, 94 365, 93 366, 92 367, 93 368, 94 369, 95 370, 94 371, 93 372, 94 373, 93 374, 94 375, 95 376, 94 377, 93 378, 94 379, 93 380, 94 381, 95 382, 96 383, 97 384, 98 385, 97 386, 98 387, 99 388, 98 389, 97 390, 98 391, 99 392, 98 393, 97 394, 98 395, 97 396, 98 397, 97 398, 98 399, 99 400, 200 " style="fill:rgb(173, 49, 241); stroke:rgb(73, 0, 141)"></polygon><polygon points="0, 200 0, 100 1, 99 2, 98 3, 97 4, 98 5, 97 6, 98 7, 97 8, 98 9, 97 10, 96 11, 97 12, 96 13, 95 14, 94 15, 95 16, 94 17, 93 18, 94 19, 95 20, 94 21, 93 22, 92 23, 91 24, 90 25, 91 26, 90 27, 91 28, 90 29, 89 30, 88 31, 87 32, 88 33, 89 34, 88 35, 89 36, 90 37, 89 38, 90 39, 89 40, 88 41, 87 42, 86 43, 85 44, 84 45, 85 46, 84 47, 83 48, 84 49, 83 50, 82 51, 81 52, 80 53, 79 54, 78 55, 77 56, 76 57, 77 58, 78 59, 79 60, 80 61, 79 62, 80 63, 81 64, 80 65, 79 66, 78 67, 79 68, 78 69, 79 70, 78 71, 79 72, 78 73, 77 74, 76 75, 75 76, 76 77, 77 78, 78 79, 79 80, 80 81, 79 82, 80 83, 81 84, 82 85, 81 86, 80 87, 81 88, 82 89, 83 90, 82 91, 81 92, 82 93, 81 94, 80 95, 81 96, 80 97, 81 98, 82 99, 83 100, 82 101, 83 102, 82 103, 83 104, 84 105, 85 106, 84 107, 83 108, 82 109, 83 110, 82 111, 81 112, 82 113, 83 114, 84 115, 85 116, 84 117, 83 118, 82 119, 81 120, 82 121, 81 122, 82 123, 81 124, 80 125, 79 126, 78 127, 79 128, 78 129, 79 130, 78 131, 77 132, 78 133, 77 134, 76 135, 77 136, 78 137, 79 138, 80 139, 81 140, 82 141, 83 142, 82 143, 83 144, 84 145, 83 146, 84 147, 85 148, 84 149, 83 150, 84 151, 83 152, 84 153, 83 154, 82 155, 83 156, 82 157, 83 158, 82 159, 83 160, 82 161, 81 162, 82 163, 81 164, 82 165, 83 166, 82 167, 81 168, 82 169, 83 170, 84 171, 85 172, 84 173, 83 174, 84 175, 85 176, 86 177, 85 178, 84 179, 83 180, 84 181, 83 182, 84 183, 85 184, 84 185, 83 186, 82 187, 83 188, 84 189, 85 190, 84 191, 85 192, 84 193, 85 194, 84 195, 85 196, 86 197, 87 198, 88 199, 87 200, 88 201, 87 202, 86 203, 87 204, 88 205, 89 206, 88 207, 87 208, 88 209, 89 210, 88 211, 89 212, 90 213, 89 214, 90 215, 91 216, 90 217, 89 218, 90 219, 89 220, 90 221, 89 222, 88 223, 89 224, 88 225, 89 226, 90 227, 91 228, 92 229, 93 230, 92 231, 93 232, 94 233, 93 234, 92 235, 91 236, 92 237, 93 238, 92 239, 93 240, 92 241, 93 242, 94 243, 93 244, 92 245, 93 246, 94 247, 95 248, 96 249, 95 250, 94 251, 93 252, 92 253, 93 254, 94 255, 95 256, 94 257, 93 258, 94 259, 93 260, 92 261, 91 262, 90 263, 91 264, 90 265, 89 266, 88 267, 89 268, 90 269, 91 270, 90 271, 91 272, 92 273, 91 274, 90 275, 89 276, 88 277, 87 278, 86 279, 85 280, 84 281, 83 282, 84 283, 83 284, 82 285, 83 286, 84 287, 85 288, 84 289, 85 290, 86 291, 87 292, 86 293, 85 294, 86 295, 87 296, 86 297, 85 298, 84 299, 83 300, 82 301, 81 302, 82 303, 83 304, 82 305, 83 306, 84 307, 85 308, 86 309, 87 310, 86 311, 85 312, 84 313, 83 314, 82 315, 81 316, 80 317, 81 318, 80 319, 81 320, 80 321, 79 322, 80 323, 79 324, 80 325, 81 326, 80 327, 81 328, 82 329, 81 330, 80 331, 79 332, 80 333, 81 334, 82 335, 81 336, 82 337, 83 338, 82 339, 83 340, 82 341, 81 342, 80 343, 81 344, 80 345, 81 346, 82 347, 81 348, 80 349, 81 350, 80 351, 81 352, 80 353, 79 354, 78 355, 77 356, 76 357, 75 358, 74 359, 75 360, 76 361, 75 362, 76 363, 77 364, 76 365, 75 366, 74 367, 73 368, 74 369, 75 370, 76 371, 75 372, 74 373, 73 374, 74 375, 73 376, 74 377, 73 378, 72 379, 71 380, 72 381, 73 382, 74 383, 75 384, 76 385, 75 386, 74 387, 73 388, 74 389, 75 390, 76 391, 77 392, 76 393, 75 394, 76 395, 77 396, 78 397, 79 398, 78 399, 77 400, 200 " style="fill:rgb(108, 1, 159); stroke:rgb(8, 0, 59)"></polygon><polygon points="0, 200 0, 100 1, 101 2, 102 3, 103 4, 102 5, 101 6, 102 7, 103 8, 104 9, 103 10, 102 11, 101 12, 102 13, 103 14, 104 15, 105 16, 106 17, 105 18, 106 19, 105 20, 104 21, 103 22, 104 23, 103 24, 104 25, 103 26, 104 27, 103 28, 104 29, 103 30, 102 31, 101 32, 102 33, 101 34, 100 35, 101 36, 102 37, 103 38, 104 39, 103 40, 102 41, 101 42, 100 43, 99 44, 98 45, 99 46, 98 47, 97 48, 96 49, 95 50, 96 51, 97 52, 96 53, 95 54, 96 55, 97 56, 96 57, 97 58, 96 59, 97 60, 98 61, 97 62, 96 63, 97 64, 96 65, 95 66, 96 67, 97 68, 98 69, 99 70, 98 71, 97 72, 96 73, 95 74, 96 75, 97 76, 96 77, 97 78, 98 79, 97 80, 96 81, 97 82, 98 83, 97 84, 96 85, 97 86, 96 87, 95 88, 94 89, 95 90, 94 91, 95 92, 96 93, 97 94, 96 95, 95 96, 94 97, 93 98, 92 99, 91 100, 92 101, 91 102, 92 103, 93 104, 94 105, 93 106, 94 107, 93 108, 94 109, 95 110, 94 111, 93 112, 92 113, 91 114, 92 115, 93 116, 92 117, 93 118, 92 119, 91 120, 92 121, 91 122, 90 123, 91 124, 90 125, 91 126, 92 127, 91 128, 92 129, 93 130, 94 131, 93 132, 94 133, 95 134, 94 135, 95 136, 96 137, 97 138, 96 139, 97 140, 98 141, 99 142, 98 143, 99 144, 100 145, 99 146, 100 147, 99 148, 100 149, 99 150, 100 151, 99 152, 100 153, 99 154, 98 155, 99 156, 100 157, 99 158, 98 159, 99 160, 98 161, 99 162, 98 163, 97 164, 96 165, 95 166, 96 167, 95 168, 96 169, 95 170, 96 171, 95 172, 94 173, 93 174, 92 175, 93 176, 94 177, 95 178, 96 179, 95 180, 94 181, 95 182, 94 183, 93 184, 94 185, 95 186, 96 187, 95 188, 96 189, 97 190, 96 191, 95 192, 94 193, 95 194, 96 195, 95 196, 94 197, 95 198, 96 199, 97 200, 98 201, 99 202, 100 203, 99 204, 98 205, 99 206, 98 207, 97 208, 98 209, 97 210, 98 211, 99 212, 98 213, 99 214, 98 215, 97 216, 98 217, 99 218, 98 219, 99 220, 100 221, 99 222, 98 223, 99 224, 98 225, 97 226, 98 227, 99 228, 100 229, 101 230, 102 231, 103 232, 104 233, 103 234, 102 235, 103 236, 104 237, 103 238, 104 239, 103 240, 104 241, 103 242, 102 243, 101 244, 102 245, 101 246, 102 247, 103 248, 104 249, 103 250, 102 251, 101 252, 102 253, 103 254, 104 255, 103 256, 104 257, 103 258, 102 259, 103 260, 102 261, 101 262, 102 263, 101 264, 100 265, 99 266, 100 267, 99 268, 98 269, 97 270, 96 271, 95 272, 94 273, 93 274, 94 275, 93 276, 92 277, 93 278, 92 279, 91 280, 90 281, 89 282, 90 283, 89 284, 88 285, 89 286, 90 287, 91 288, 92 289, 93 290, 92 291, 93 292, 94 293, 93 294, 94 295, 93 296, 94 297, 93 298, 94 299, 95 300, 94 301, 93 302, 92 303, 91 304, 92 305, 91 306, 92 307, 91 308, 92 309, 91 310, 90 311, 89 312, 90 313, 91 314, 90 315, 91 316, 92 317, 93 318, 94 319, 95 320, 96 321, 97 322, 98 323, 99 324, 98 325, 99 326, 98 327, 99 328, 100 329, 99 330, 98 331, 99 332, 98 333, 97 334, 96 335, 95 336, 94 337, 93 338, 94 339, 95 340, 94 341, 93 342, 92 343, 93 344, 94 345, 95 346, 96 347, 95 348, 96 349, 95 350, 96 351, 95 352, 96 353, 97 354, 98 355, 99 356, 100 357, 99 358, 100 359, 101 360, 102 361, 101 362, 100 363, 99 364, 98 365, 97 366, 96 367, 97 368, 98 369, 99 370, 100 371, 101 372, 102 373, 103 374, 104 375, 103 376, 104 377, 103 378, 104 379, 103 380, 104 381, 105 382, 106 383, 105 384, 106 385, 107 386, 106 387, 105 388, 106 389, 107 390, 108 391, 107 392, 106 393, 105 394, 104 395, 103 396, 102 397, 101 398, 100 399, 101 400, 200 " style="fill:rgb(162, 202, 71); stroke:rgb(62, 102, 0)"></polygon><polygon points="0, 200 0, 100 1, 99 2, 98 3, 99 4, 98 5, 99 6, 100 7, 101 8, 100 9, 101 10, 102 11, 103 12, 104 13, 105 14, 106 15, 105 16, 106 17, 105 18, 104 19, 103 20, 104 21, 105 22, 106 23, 107 24, 108 25, 107 26, 106 27, 105 28, 104 29, 103 30, 102 31, 103 32, 104 33, 103 34, 104 35, 105 36, 106 37, 107 38, 108 39, 109 40, 108 41, 109 42, 110 43, 109 44, 110 45, 111 46, 110 47, 109 48, 110 49, 109 50, 108 51, 109 52, 110 53, 109 54, 110 55, 109 56, 110 57, 111 58, 110 59, 111 60, 112 61, 111 62, 110 63, 109 64, 108 65, 109 66, 108 67, 107 68, 106 69, 107 70, 108 71, 109 72, 110 73, 109 74, 108 75, 109 76, 110 77, 109 78, 108 79, 109 80, 110 81, 109 82, 108 83, 107 84, 106 85, 107 86, 106 87, 107 88, 106 89, 105 90, 104 91, 103 92, 104 93, 105 94, 104 95, 105 96, 106 97, 105 98, 104 99, 103 100, 102 101, 101 102, 102 103, 101 104, 100 105, 99 106, 98 107, 99 108, 98 109, 97 110, 96 111, 95 112, 96 113, 97 114, 96 115, 97 116, 98 117, 99 118, 98 119, 99 120, 100 121, 101 122, 102 123, 101 124, 100 125, 101 126, 102 127, 103 128, 104 129, 103 130, 102 131, 101 132, 102 133, 101 134, 100 135, 99 136, 98 137, 97 138, 96 139, 95 140, 94 141, 93 142, 94 143, 95 144, 94 145, 95 146, 96 147, 95 148, 94 149, 95 150, 94 151, 93 152, 92 153, 91 154, 90 155, 89 156, 88 157, 87 158, 88 159, 87 160, 86 161, 85 162, 86 163, 87 164, 86 165, 87 166, 88 167, 89 168, 90 169, 91 170, 90 171, 89 172, 88 173, 89 174, 88 175, 89 176, 88 177, 87 178, 86 179, 85 180, 86 181, 85 182, 86 183, 85 184, 86 185, 87 186, 86 187, 87 188, 88 189, 89 190, 90 191, 89 192, 90 193, 91 194, 90 195, 91 196, 92 197, 91 198, 90 199, 91 200, 90 201, 91 202, 92 203, 91 204, 90 205, 91 206, 92 207, 93 208, 92 209, 91 210, 92 211, 91 212, 92 213, 91 214, 92 215, 91 216, 90 217, 89 218, 90 219, 91 220, 92 221, 91 222, 90 223, 91 224, 90 225, 89 226, 88 227, 87 228, 88 229, 89 230, 90 231, 89 232, 90 233, 91 234, 90 235, 89 236, 90 237, 89 238, 88 239, 87 240, 88 241, 89 242, 88 243, 87 244, 86 245, 87 246, 86 247, 87 248, 86 249, 87 250, 88 251, 89 252, 90 253, 89 254, 90 255, 91 256, 92 257, 91 258, 92 259, 91 260, 90 261, 89 262, 88 263, 89 264, 88 265, 87 266, 86 267, 87 268, 88 269, 87 270, 88 271, 89 272, 88 273, 89 274, 88 275, 87 276, 86 277, 85 278, 86 279, 85 280, 86 281, 87 282, 88 283, 89 284, 90 285, 89 286, 88 287, 87 288, 88 289, 89 290, 90 291, 89 292, 90 293, 91 294, 90 295, 91 296, 90 297, 89 298, 88 299, 89 300, 90 301, 89 302, 90 303, 89 304, 90 305, 89 306, 88 307, 89 308, 90 309, 89 310, 88 311, 87 312, 86 313, 85 314, 86 315, 85 316, 86 317, 87 318, 88 319, 89 320, 88 321, 87 322, 86 323, 85 324, 86 325, 87 326, 88 327, 87 328, 88 329, 89 330, 90 331, 89 332, 88 333, 89 334, 90 335, 91 336, 90 337, 89 338, 90 339, 89 340, 90 341, 89 342, 88 343, 87 344, 88 345, 89 346, 90 347, 89 348, 88 349, 87 350, 88 351, 87 352, 86 353, 87 354, 86 355, 85 356, 86 357, 87 358, 88 359, 87 360, 88 361, 87 362, 86 363, 85 364, 84 365, 85 366, 84 367, 85 368, 86 369, 85 370, 86 371, 85 372, 86 373, 87 374, 86 375, 87 376, 86 377, 85 378, 84 379, 83 380, 84 381, 83 382, 84 383, 83 384, 82 385, 83 386, 82 387, 83 388, 84 389, 83 390, 84 391, 83 392, 84 393, 85 394, 86 395, 87 396, 88 397, 89 398, 90 399, 89 400, 200 " style="fill:rgb(17, 214, 184); stroke:rgb(0, 114, 84)"></polygon><polygon points="0, 200 0, 100 1, 101 2, 100 3, 99 4, 98 5, 99 6, 100 7, 99 8, 98 9, 99 10, 100 11, 99 12, 98 13, 97 14, 96 15, 95 16, 94 17, 93 18, 92 19, 93 20, 92 21, 93 22, 92 23, 91 24, 90 25, 89 26, 90 27, 91 28, 90 29, 89 30, 90 31, 89 32, 90 33, 91 34, 92 35, 91 36, 90 37, 91 38, 90 39, 89 40, 90 41, 91 42, 90 43, 89 44, 88 45, 87 46, 88 47, 87 48, 86 49, 87 50, 88 51, 87 52, 88 53, 89 54, 88 55, 87 56, 86 57, 87 58, 88 59, 87 60, 86 61, 87 62, 86 63, 85 64, 86 65, 87 66, 88 67, 89 68, 88 69, 87 70, 88 71, 89 72, 90 73, 89 74, 90 75, 89 76, 90 77, 89 78, 90 79, 89 80, 90 81, 89 82, 88 83, 87 84, 88 85, 87 86, 88 87, 89 88, 88 89, 87 90, 88 91, 87 92, 86 93, 87 94, 86 95, 85 96, 86 97, 87 98, 88 99, 89 100, 90 101, 91 102, 92 103, 91 104, 90 105, 89 106, 88 107, 89 108, 90 109, 89 110, 88 111, 89 112, 88 113, 89 114, 90 115, 91 116, 92 117, 93 118, 92 119, 93 120, 92 121, 91 122, 90 123, 91 124, 90 125, 91 126, 92 127, 93 128, 92 129, 91 130, 90 131, 89 132, 88 133, 87 134, 88 135, 87 136, 88 137, 87 138, 86 139, 87 140, 88 141, 87 142, 86 143, 85 144, 86 145, 87 146, 86 147, 87 148, 86 149, 87 150, 88 151, 87 152, 88 153, 89 154, 88 155, 89 156, 90 157, 89 158, 90 159, 89 160, 88 161, 87 162, 86 163, 87 164, 86 165, 87 166, 86 167, 85 168, 84 169, 85 170, 84 171, 83 172, 82 173, 83 174, 84 175, 85 176, 86 177, 87 178, 88 179, 89 180, 88 181, 87 182, 86 183, 85 184, 84 185, 85 186, 84 187, 83 188, 84 189, 85 190, 86 191, 85 192, 86 193, 87 194, 88 195, 87 196, 86 197, 87 198, 88 199, 89 200, 88 201, 87 202, 88 203, 87 204, 88 205, 89 206, 90 207, 91 208, 90 209, 89 210, 90 211, 91 212, 92 213, 93 214, 92 215, 93 216, 92 217, 93 218, 94 219, 95 220, 96 221, 95 222, 96 223, 95 224, 94 225, 93 226, 92 227, 91 228, 90 229, 91 230, 90 231, 91 232, 90 233, 91 234, 92 235, 91 236, 92 237, 91 238, 92 239, 91 240, 92 241, 91 242, 90 243, 89 244, 90 245, 89 246, 88 247, 89 248, 88 249, 89 250, 90 251, 89 252, 88 253, 87 254, 86 255, 87 256, 88 257, 87 258, 88 259, 89 260, 90 261, 89 262, 90 263, 89 264, 88 265, 89 266, 90 267, 91 268, 92 269, 93 270, 94 271, 93 272, 94 273, 95 274, 94 275, 95 276, 94 277, 95 278, 96 279, 97 280, 98 281, 99 282, 98 283, 97 284, 98 285, 99 286, 98 287, 99 288, 98 289, 97 290, 96 291, 97 292, 96 293, 95 294, 94 295, 93 296, 94 297, 95 298, 96 299, 95 300, 94 301, 93 302, 92 303, 93 304, 92 305, 91 306, 92 307, 91 308, 90 309, 91 310, 92 311, 91 312, 92 313, 91 314, 90 315, 89 316, 90 317, 91 318, 90 319, 91 320, 92 321, 91 322, 92 323, 93 324, 94 325, 95 326, 96 327, 97 328, 96 329, 97 330, 96 331, 95 332, 94 333, 95 334, 94 335, 95 336, 96 337, 95 338, 94 339, 95 340, 96 341, 95 342, 96 343, 95 344, 96 345, 97 346, 96 347, 95 348, 96 349, 95 350, 94 351, 93 352, 92 353, 91 354, 90 355, 91 356, 90 357, 89 358, 88 359, 89 360, 88 361, 87 362, 88 363, 89 364, 88 365, 89 366, 90 367, 89 368, 90 369, 89 370, 88 371, 89 372, 88 373, 87 374, 88 375, 89 376, 90 377, 91 378, 90 379, 91 380, 92 381, 93 382, 92 383, 93 384, 92 385, 91 386, 90 387, 89 388, 90 389, 89 390, 90 391, 89 392, 90 393, 89 394, 88 395, 87 396, 86 397, 85 398, 86 399, 87 400, 200 " style="fill:rgb(95, 126, 15); stroke:rgb(0, 26, 0)"></polygon><polygon points="0, 200 0, 100 1, 99 2, 100 3, 101 4, 100 5, 99 6, 98 7, 97 8, 96 9, 97 10, 96 11, 95 12, 96 13, 95 14, 94 15, 93 16, 94 17, 95 18, 94 19, 93 20, 94 21, 95 22, 94 23, 95 24, 94 25, 93 26, 94 27, 93 28, 92 29, 93 30, 94 31, 95 32, 96 33, 97 34, 96 35, 95 36, 96 37, 97 38, 98 39, 97 40, 96 41, 95 42, 94 43, 95 44, 94 45, 93 46, 92 47, 93 48, 92 49, 91 50, 90 51, 89 52, 88 53, 87 54, 86 55, 87 56, 88 57, 89 58, 90 59, 89 60, 90 61, 91 62, 90 63, 91 64, 92 65, 91 66, 92 67, 93 68, 94 69, 93 70, 94 71, 95 72, 96 73, 97 74, 96 75, 95 76, 94 77, 93 78, 92 79, 93 80, 94 81, 93 82, 94 83, 93 84, 94 85, 93 86, 92 87, 93 88, 94 89, 93 90, 92 91, 91 92, 92 93, 93 94, 92 95, 93 96, 92 97, 91 98, 92 99, 93 100, 92 101, 91 102, 92 103, 91 104, 90 105, 89 106, 88 107, 87 108, 88 109, 89 110, 90 111, 91 112, 90 113, 89 114, 88 115, 89 116, 88 117, 87 118, 86 119, 87 120, 88 121, 89 122, 90 123, 89 124, 88 125, 87 126, 88 127, 89 128, 88 129, 87 130, 86 131, 85 132, 84 133, 83 134, 82 135, 81 136, 80 137, 81 138, 82 139, 81 140, 80 141, 81 142, 82 143, 83 144, 82 145, 81 146, 80 147, 79 148, 78 149, 77 150, 78 151, 79 152, 80 153, 79 154, 78 155, 79 156, 78 157, 77 158, 76 159, 77 160, 76 161, 77 162, 78 163, 79 164, 78 165, 79 166, 78 167, 79 168, 80 169, 81 170, 82 171, 83 172, 82 173, 81 174, 80 175, 79 176, 80 177, 81 178, 80 179, 79 180, 78 181, 79 182, 80 183, 81 184, 80 185, 81 186, 80 187, 79 188, 80 189, 79 190, 78 191, 77 192, 76 193, 77 194, 76 195, 75 196, 76 197, 77 198, 76 199, 77 200, 76 201, 75 202, 76 203, 75 204, 74 205, 73 206, 74 207, 73 208, 74 209, 73 210, 74 211, 73 212, 72 213, 73 214, 74 215, 75 216, 76 217, 77 218, 76 219, 77 220, 76 221, 75 222, 76 223, 77 224, 76 225, 77 226, 78 227, 79 228, 80 229, 81 230, 82 231, 81 232, 80 233, 79 234, 78 235, 79 236, 80 237, 79 238, 78 239, 79 240, 78 241, 79 242, 78 243, 79 244, 80 245, 81 246, 80 247, 81 248, 82 249, 83 250, 82 251, 83 252, 82 253, 83 254, 82 255, 81 256, 80 257, 79 258, 80 259, 81 260, 80 261, 81 262, 82 263, 81 264, 80 265, 79 266, 80 267, 81 268, 82 269, 83 270, 82 271, 83 272, 82 273, 81 274, 80 275, 79 276, 80 277, 81 278, 82 279, 83 280, 84 281, 83 282, 82 283, 83 284, 84 285, 85 286, 86 287, 85 288, 84 289, 83 290, 84 291, 83 292, 84 293, 85 294, 86 295, 87 296, 86 297, 85 298, 86 299, 87 300, 88 301, 89 302, 90 303, 89 304, 90 305, 91 306, 90 307, 89 308, 90 309, 89 310, 90 311, 89 312, 88 313, 89 314, 88 315, 87 316, 86 317, 85 318, 86 319, 87 320, 88 321, 89 322, 90 323, 89 324, 90 325, 89 326, 90 327, 91 328, 92 329, 91 330, 90 331, 89 332, 90 333, 91 334, 92 335, 93 336, 94 337, 93 338, 94 339, 93 340, 92 341, 93 342, 94 343, 93 344, 92 345, 91 346, 90 347, 91 348, 92 349, 93 350, 94 351, 95 352, 94 353, 93 354, 94 355, 93 356, 94 357, 93 358, 94 359, 93 360, 94 361, 93 362, 94 363, 93 364, 92 365, 93 366, 94 367, 93 368, 94 369, 95 370, 94 371, 95 372, 94 373, 95 374, 96 375, 97 376, 98 377, 99 378, 98 379, 99 380, 98 381, 97 382, 96 383, 97 384, 96 385, 97 386, 96 387, 95 388, 96 389, 97 390, 96 391, 97 392, 98 393, 99 394, 100 395, 99 396, 98 397, 97 398, 98 399, 97 400, 200 " style="fill:rgb(89, 23, 215); stroke:rgb(0, 0, 115)"></polygon><polygon points="0, 200 0, 100 1, 101 2, 102 3, 101 4, 100 5, 99 6, 98 7, 97 8, 98 9, 99 10, 100 11, 101 12, 102 13, 103 14, 102 15, 101 16, 102 17, 101 18, 100 19, 101 20, 100 21, 99 22, 100 23, 101 24, 102 25, 103 26, 102 27, 101 28, 102 29, 103 30, 102 31, 101 32, 102 33, 101 34, 100 35, 99 36, 100 37, 99 38, 100 39, 99 40, 100 41, 99 42, 98 43, 97 44, 98 45, 97 46, 98 47, 99 48, 100 49, 101 50, 102 51, 103 52, 102 53, 103 54, 102 55, 103 56, 102 57, 103 58, 102 59, 103 60, 104 61, 103 62, 104 63, 105 64, 104 65, 105 66, 104 67, 105 68, 106 69, 105 70, 104 71, 103 72, 102 73, 101 74, 100 75, 101 76, 100 77, 101 78, 102 79, 103 80, 102 81, 101 82, 102 83, 103 84, 104 85, 105 86, 104 87, 105 88, 106 89, 107 90, 108 91, 107 92, 106 93, 105 94, 106 95, 107 96, 106 97, 105 98, 104 99, 105 100, 106 101, 107 102, 108 103, 107 104, 106 105, 105 106, 106 107, 107 108, 108 109, 109 110, 108 111, 109 112, 108 113, 109 114, 110 115, 111 116, 110 117, 109 118, 110 119, 109 120, 108 121, 107 122, 108 123, 109 124, 110 125, 111 126, 110 127, 111 128, 112 129, 113 130, 112 131, 111 132, 112 133, 111 134, 112 135, 113 136, 114 137, 115 138, 114 139, 115 140, 114 141, 115 142, 114 143, 115 144, 116 145, 117 146, 116 147, 117 148, 116 149, 115 150, 116 151, 117 152, 118 153, 117 154, 116 155, 117 156, 116 157, 117 158, 118 159, 119 160, 120 161, 119 162, 118 163, 117 164, 116 165, 117 166, 118 167, 119 168, 118 169, 117 170, 116 171, 115 172, 114 173, 115 174, 114 175, 115 176, 114 177, 115 178, 116 179, 117 180, 118 181, 117 182, 118 183, 117 184, 118 185, 117 186, 118 187, 117 188, 116 189, 117 190, 118 191, 117 192, 116 193, 117 194, 118 195, 117 196, 118 197, 117 198, 116 199, 115 200, 114 201, 115 202, 114 203, 113 204, 112 205, 113 206, 114 207, 115 208, 116 209, 115 210, 116 211, 117 212, 118 213, 117 214, 116 215, 117 216, 118 217, 119 218, 120 219, 119 220, 120 221, 121 222, 120 223, 121 224, 120 225, 121 226, 120 227, 119 228, 118 229, 117 230, 118 231, 117 232, 118 233, 117 234, 118 235, 117 236, 116 237, 117 238, 116 239, 115 240, 116 241, 115 242, 116 243, 115 244, 116 245, 115 246, 114 247, 113 248, 112 249, 113 250, 112 251, 111 252, 112 253, 113 254, 114 255, 113 256, 112 257, 113 258, 114 259, 113 260, 114 261, 115 262, 114 263, 113 264, 112 265, 113 266, 114 267, 115 268, 116 269, 115 270, 114 271, 115 272, 114 273, 115 274, 116 275, 115 276, 116 277, 117 278, 116 279, 115 280, 116 281, 117 282, 116 283, 115 284, 116 285, 115 286, 114 287, 115 288, 114 289, 113 290, 112 291, 111 292, 112 293, 113 294, 112 295, 113 296, 112 297, 113 298, 114 299, 113 300, 114 301, 115 302, 116 303, 115 304, 114 305, 115 306, 116 307, 115 308, 116 309, 117 310, 116 311, 115 312, 114 313, 113 314, 112 315, 113 316, 112 317, 113 318, 112 319, 111 320, 112 321, 111 322, 112 323, 113 324, 112 325, 111 326, 110 327, 111 328, 110 329, 111 330, 112 331, 111 332, 112 333, 113 334, 112 335, 111 336, 112 337, 111 338, 112 339, 113 340, 112 341, 111 342, 112 343, 113 344, 112 345, 111 346, 112 347, 113 348, 112 349, 111 350, 110 351, 111 352, 110 353, 111 354, 110 355, 111 356, 110 357, 111 358, 112 359, 113 360, 114 361, 113 362, 112 363, 113 364, 112 365, 113 366, 114 367, 115 368, 116 369, 117 370, 118 371, 119 372, 118 373, 117 374, 116 375, 115 376, 114 377, 115 378, 114 379, 115 380, 114 381, 113 382, 112 383, 111 384, 110 385, 109 386, 108 387, 109 388, 108 389, 107 390, 108 391, 107 392, 106 393, 107 394, 106 395, 107 396, 108 397, 107 398, 106 399, 107 400, 200 " style="fill:rgb(136, 16, 196); stroke:rgb(36, 0, 96)"></polygon><polygon points="0, 200 0, 100 1, 101 2, 100 3, 99 4, 100 5, 101 6, 102 7, 101 8, 100 9, 101 10, 100 11, 99 12, 100 13, 101 14, 100 15, 101 16, 100 17, 99 18, 100 19, 99 20, 98 21, 97 22, 98 23, 97 24, 96 25, 97 26, 98 27, 97 28, 96 29, 97 30, 98 31, 99 32, 100 33, 101 34, 100 35, 101 36, 100 37, 101 38, 100 39, 99 40, 100 41, 101 42, 102 43, 103 44, 104 45, 103 46, 102 47, 103 48, 104 49, 103 50, 104 51, 103 52, 102 53, 101 54, 100 55, 101 56, 102 57, 101 58, 100 59, 101 60, 102 61, 103 62, 104 63, 105 64, 104 65, 105 66, 106 67, 107 68, 108 69, 107 70, 108 71, 109 72, 110 73, 111 74, 112 75, 113 76, 112 77, 111 78, 110 79, 111 80, 110 81, 109 82, 108 83, 107 84, 106 85, 105 86, 104 87, 103 88, 104 89, 105 90, 106 91, 107 92, 108 93, 109 94, 110 95, 111 96, 110 97, 111 98, 112 99, 113 100, 114 101, 113 102, 112 103, 113 104, 112 105, 113 106, 114 107, 113 108, 114 109, 113 110, 114 111, 115 112, 114 113, 115 114, 116 115, 115 116, 116 117, 115 118, 114 119, 115 120, 114 121, 113 122, 112 123, 111 124, 110 125, 111 126, 112 127, 111 128, 110 129, 111 130, 112 131, 111 132, 112 133, 113 134, 112 135, 113 136, 114 137, 113 138, 114 139, 115 140, 114 141, 113 142, 112 143, 111 144, 112 145, 113 146, 112 147, 113 148, 114 149, 113 150, 114 151, 113 152, 114 153, 115 154, 114 155, 113 156, 112 157, 113 158, 112 159, 113 160, 112 161, 113 162, 114 163, 113 164, 112 165, 113 166, 114 167, 115 168, 116 169, 117 170, 118 171, 117 172, 116 173, 115 174, 116 175, 115 176, 114 177, 113 178, 112 179, 111 180, 112 181, 111 182, 110 183, 111 184, 110 185, 111 186, 112 187, 113 188, 112 189, 111 190, 112 191, 111 192, 110 193, 111 194, 112 195, 111 196, 110 197, 111 198, 110 199, 109 200, 110 201, 111 202, 112 203, 111 204, 112 205, 111 206, 112 207, 113 208, 112 209, 113 210, 112 211, 111 212, 112 213, 111 214, 112 215, 111 216, 112 217, 111 218, 112 219, 113 220, 112 221, 113 222, 114 223, 113 224, 112 225, 111 226, 110 227, 111 228, 112 229, 113 230, 112 231, 111 232, 110 233, 109 234, 108 235, 107 236, 106 237, 107 238, 106 239, 105 240, 106 241, 107 242, 106 243, 107 244, 108 245, 107 246, 106 247, 107 248, 108 249, 109 250, 110 251, 111 252, 110 253, 111 254, 112 255, 111 256, 110 257, 111 258, 110 259, 111 260, 110 261, 111 262, 112 263, 113 264, 114 265, 113 266, 114 267, 113 268, 114 269, 115 270, 116 271, 117 272, 118 273, 117 274, 116 275, 117 276, 116 277, 117 278, 118 279, 117 280, 116 281, 115 282, 116 283, 115 284, 114 285, 115 286, 116 287, 115 288, 116 289, 115 290, 116 291, 117 292, 116 293, 115 294, 116 295, 115 296, 114 297, 113 298, 112 299, 111 300, 110 301, 111 302, 110 303, 109 304, 110 305, 109 306, 108 307, 109 308, 110 309, 111 310, 110 311, 109 312, 108 313, 109 314, 108 315, 107 316, 108 317, 107 318, 106 319, 107 320, 108 321, 107 322, 106 323, 107 324, 108 325, 109 326, 110 327, 109 328, 110 329, 111 330, 112 331, 111 332, 112 333, 113 334, 114 335, 115 336, 116 337, 117 338, 118 339, 117 340, 116 341, 117 342, 116 343, 117 344, 116 345, 117 346, 116 347, 115 348, 116 349, 117 350, 116 351, 115 352, 116 353, 117 354, 116 355, 117 356, 118 357, 117 358, 118 359, 117 360, 116 361, 117 362, 118 363, 117 364, 116 365, 115 366, 114 367, 113 368, 112 369, 111 370, 110 371, 111 372, 112 373, 111 374, 112 375, 113 376, 112 377, 113 378, 114 379, 113 380, 112 381, 113 382, 112 383, 113 384, 112 385, 111 386, 112 387, 113 388, 112 389, 113 390, 114 391, 113 392, 112 393, 111 394, 110 395, 111 396, 112 397, 111 398, 110 399, 111 400, 200 " style="fill:rgb(90, 247, 70); stroke:rgb(0, 147, 0)"></polygon><polygon points="0, 200 0, 100 1, 101 2, 100 3, 99 4, 100 5, 101 6, 102 7, 103 8, 102 9, 101 10, 100 11, 99 12, 100 13, 101 14, 100 15, 101 16, 102 17, 103 18, 104 19, 103 20, 102 21, 103 22, 104 23, 103 24, 102 25, 101 26, 100 27, 101 28, 102 29, 101 30, 102 31, 103 32, 102 33, 103 34, 102 35, 103 36, 102 37, 103 38, 102 39, 103 40, 104 41, 103 42, 102 43, 101 44, 100 45, 99 46, 98 47, 99 48, 100 49, 101 50, 100 51, 101 52, 100 53, 101 54, 100 55, 101 56, 102 57, 101 58, 102 59, 101 60, 102 61, 103 62, 102 63, 101 64, 102 65, 101 66, 100 67, 101 68, 100 69, 101 70, 100 71, 99 72, 100 73, 101 74, 100 75, 101 76, 102 77, 101 78, 100 79, 99 80, 98 81, 99 82, 100 83, 101 84, 100 85, 101 86, 102 87, 101 88, 100 89, 99 90, 100 91, 101 92, 100 93, 101 94, 100 95, 101 96, 100 97, 99 98, 100 99, 101 100, 100 101, 99 102, 100 103, 101 104, 100 105, 101 106, 100 107, 99 108, 100 109, 99 110, 98 111, 99 112, 100 113, 101 114, 100 115, 101 116, 100 117, 99 118, 100 119, 101 120, 100 121, 101 122, 100 123, 99 124, 98 125, 99 126, 98 127, 97 128, 96 129, 95 130, 94 131, 93 132, 94 133, 93 134, 94 135, 93 136, 94 137, 95 138, 96 139, 95 140, 96 141, 95 142, 94 143, 95 144, 94 145, 95 146, 96 147, 95 148, 96 149, 97 150, 98 151, 97 152, 96 153, 97 154, 96 155, 97 156, 98 157, 99 158, 98 159, 97 160, 96 161, 95 162, 96 163, 97 164, 98 165, 97 166, 96 167, 97 168, 96 169, 95 170, 94 171, 95 172, 96 173, 95 174, 96 175, 95 176, 96 177, 97 178, 98 179, 97 180, 96 181, 95 182, 94 183, 93 184, 92 185, 93 186, 92 187, 93 188, 94 189, 93 190, 92 191, 91 192, 92 193, 91 194, 90 195, 89 196, 90 197, 91 198, 92 199, 91 200, 92 201, 93 202, 92 203, 91 204, 90 205, 91 206, 90 207, 91 208, 90 209, 89 210, 90 211, 89 212, 88 213, 89 214, 88 215, 87 216, 88 217, 87 218, 88 219, 89 220, 88 221, 89 222, 88 223, 89 224, 88 225, 87 226, 86 227, 85 228, 84 229, 83 230, 84 231, 83 232, 84 233, 85 234, 84 235, 83 236, 84 237, 83 238, 84 239, 85 240, 84 241, 83 242, 84 243, 85 244, 84 245, 85 246, 86 247, 87 248, 86 249, 85 250, 84 251, 83 252, 84 253, 83 254, 82 255, 83 256, 82 257, 83 258, 84 259, 83 260, 82 261, 83 262, 84 263, 83 264, 82 265, 81 266, 82 267, 81 268, 80 269, 79 270, 78 271, 77 272, 76 273, 75 274, 74 275, 75 276, 76 277, 75 278, 74 279, 75 280, 76 281, 75 282, 74 283, 73 284, 72 285, 73 286, 72 287, 73 288, 72 289, 73 290, 72 291, 71 292, 70 293, 69 294, 68 295, 67 296, 66 297, 65 298, 64 299, 65 300, 66 301, 67 302, 68 303, 67 304, 68 305, 67 306, 66 307, 67 308, 68 309, 69 310, 68 311, 69 312, 70 313, 71 314, 70 315, 69 316, 70 317, 71 318, 72 319, 71 320, 70 321, 71 322, 70 323, 71 324, 70 325, 71 326, 72 327, 73 328, 72 329, 71 330, 70 331, 71 332, 72 333, 71 334, 70 335, 69 336, 68 337, 67 338, 68 339, 67 340, 68 341, 69 342, 68 343, 69 344, 68 345, 69 346, 70 347, 69 348, 70 349, 69 350, 70 351, 71 352, 70 353, 71 354, 72 355, 73 356, 74 357, 75 358, 74 359, 73 360, 74 361, 75 362, 76 363, 75 364, 76 365, 75 366, 74 367, 73 368, 74 369, 75 370, 76 371, 77 372, 78 373, 79 374, 78 375, 77 376, 76 377, 75 378, 76 379, 77 380, 78 381, 79 382, 80 383, 79 384, 78 385, 77 386, 78 387, 77 388, 78 389, 79 390, 78 391, 77 392, 78 393, 77 394, 78 395, 77 396, 76 397, 77 398, 78 399, 77 400, 200 " style="fill:rgb(2, 230, 240); stroke:rgb(0, 130, 140)"></polygon></svg>